Dead Space: Aftermath 3D (2012) QHD Half-SBS for 3DTV - EVO 3D 
made specifically for 3DTV's and handheld 3D Devices alike with Auto-3D Enabled
(no more putting your device into 3D mode, 
it will read this file like a disc and do it for you)
Encoded by the group Sick-Flix bringing EVO 3D users more content than amazon
Over 500 Real 3D Titles from all over the Globe

Complete name : Dead Space- Aftermath 3D (2011) QHD Half-SBS for 3DTV - EVO3D.mp4
Format : MPEG-4
Format profile : Base Media / Version 2
Codec ID : mp42
File size : 1.04 GiB
Duration : 1h 17mn
Overall bit rate mode : Variable
Overall bit rate : 2 906 Kbps
Encoded date : UTC 2012-09-27 22:06:42
Tagged date : UTC 2012-09-27 22:34:04

Video
ID : 1
Format : AVC
Format/Info : Advanced Video Codec
Format profile : High@L3.1
Format settings, CABAC : Yes
Format settings, ReFrames : 6 frames
Codec ID : avc1
Codec ID/Info : Advanced Video Coding
Duration : 1h 17mn
Bit rate mode : Variable
Bit rate : 2 600 Kbps
Display aspect ratio : 16:9
Frame rate mode : Variable
Frame rate : 23.976 fps
Minimum frame rate : 23.810 fps
Maximum frame rate : 1 000.000 fps
Color space : YUV
Chroma subsampling : 4:2:0
Bit depth : 8 bits
Scan type : Progressive
Bits/(Pixel*Frame) : 0.129
Stream size : 890 MiB (84%)
Writing library : x264 core 122
Encoding settings : cabac=1 / ref=6 / deblock=1:0:0 / analyse=0x3:0x113 / me=umh / subme=7 / psy=1 / psy_rd=1.00:0.00 / mixed_ref=0 / me_range=42 / chroma_me=1 / trellis=1 / 8x8dct=1 / cqm=0 / deadzone=21,11 / fast_pskip=1 / chroma_qp_offset=-2 / threads=6 / sliced_threads=0 / nr=0 / decimate=1 / interlaced=0 / bluray_compat=0 / constrained_intra=0 / bframes=6 / b_pyramid=2 / b_adapt=2 / b_bias=0 / direct=3 / weightb=0 / open_gop=0 / weightp=2 / keyint=240 / keyint_min=24 / scenecut=40 / intra_refresh=0 / rc_lookahead=40 / rc=crf / mbtree=1 / crf=15.6 / qcomp=0.60 / qpmin=3 / qpmax=69 / qpstep=4 / frame-packing=3 / ip_ratio=1.40 / aq=1:1.00
Encoded date : UTC 2012-09-27 22:06:42
Tagged date : UTC 2012-09-27 22:34:04
Color primaries : BT.709-5, BT.1361, IEC 61966-2-4, SMPTE RP177
Transfer characteristics : BT.709-5, BT.1361
Matrix coefficients : BT.709-5, BT.1361, IEC 61966-2-4 709, SMPTE RP177

Audio
ID : 2
Format : AAC
Format/Info : Advanced Audio Codec
Format profile : LC
Codec ID : 40
Duration : 1h 17mn
Bit rate mode : Variable
Bit rate : 302 Kbps
Maximum bit rate : 382 Kbps
Channel(s) : 2 channels
Channel positions : Front: L R
Sampling rate : 48.0 KHz
Compression mode : Lossy
Stream size : 168 MiB (16%)
Language : English
Encoded date : UTC 2012-09-27 22:06:42
Tagged date : UTC 2012-09-27 22:34:03




IMDB = http://www.imdb.com/title/tt1711366/

Seedbox Supported, for any questions please just google Sick-Flix